<svg height="606" width="720" xmlns="http://www.w3.org/2000/svg">
<rect height="606" fill="#555" width="720"></rect>
<text fill="#7f7" font-family="Courier New" font-size="12" xml:space="preserve">
<tspan x="10" y="26">16 megabytes installed</tspan>
<tspan x="10" y="42"></tspan>
<tspan x="10" y="58">node_modules</tspan>
<tspan x="10" y="74">└─┬ vogels@2.2.0 </tspan>
<tspan x="10" y="90">  ├── async@1.5.2 </tspan>
<tspan x="10" y="106">  ├─┬ aws-sdk@2.2.48 </tspan>
<tspan x="10" y="122">  │ ├── sax@1.1.5 </tspan>
<tspan x="10" y="138">  │ ├── xml2js@0.4.15 </tspan>
<tspan x="10" y="154">  │ └─┬ xmlbuilder@2.6.2 </tspan>
<tspan x="10" y="170">  │   └── lodash@3.5.0 </tspan>
<tspan x="10" y="186">  ├─┬ bunyan@1.5.1 </tspan>
<tspan x="10" y="202">  │ ├─┬ dtrace-provider@0.6.0 </tspan>
<tspan x="10" y="218">  │ │ └── nan@2.6.2 </tspan>
<tspan x="10" y="234">  │ ├─┬ mv@2.1.1 </tspan>
<tspan x="10" y="250">  │ │ ├─┬ mkdirp@0.5.1 </tspan>
<tspan x="10" y="266">  │ │ │ └── minimist@0.0.8 </tspan>
<tspan x="10" y="282">  │ │ ├── ncp@2.0.0 </tspan>
<tspan x="10" y="298">  │ │ └─┬ rimraf@2.4.5 </tspan>
<tspan x="10" y="314">  │ │   └─┬ glob@6.0.4 </tspan>
<tspan x="10" y="330">  │ │     ├─┬ inflight@1.0.6 </tspan>
<tspan x="10" y="346">  │ │     │ └── wrappy@1.0.2 </tspan>
<tspan x="10" y="362">  │ │     ├── inherits@2.0.3 </tspan>
<tspan x="10" y="378">  │ │     ├─┬ minimatch@3.0.3 </tspan>
<tspan x="10" y="394">  │ │     │ └─┬ brace-expansion@1.1.7 </tspan>
<tspan x="10" y="410">  │ │     │   ├── balanced-match@0.4.2 </tspan>
<tspan x="10" y="426">  │ │     │   └── concat-map@0.0.1 </tspan>
<tspan x="10" y="442">  │ │     ├── once@1.4.0 </tspan>
<tspan x="10" y="458">  │ │     └── path-is-absolute@1.0.1 </tspan>
<tspan x="10" y="474">  │ └── safe-json-stringify@1.0.4 </tspan>
<tspan x="10" y="490">  ├─┬ joi@5.1.0 </tspan>
<tspan x="10" y="506">  │ ├── hoek@2.16.3 </tspan>
<tspan x="10" y="522">  │ ├── isemail@1.2.0 </tspan>
<tspan x="10" y="538">  │ ├── moment@2.18.1 </tspan>
<tspan x="10" y="554">  │ └── topo@1.1.0 </tspan>
<tspan x="10" y="570">  ├── lodash@3.10.1 </tspan>
<tspan x="10" y="586">  └── node-uuid@1.4.8</tspan>
</text>
</svg>
